<?xml version="1.0" encoding="utf-8" standalone="no"?>
<!DOCTYPE svg PUBLIC "-//W3C//DTD SVG 1.1//EN"
  "http://www.w3.org/Graphics/SVG/1.1/DTD/svg11.dtd">
<!-- Created with matplotlib (http://matplotlib.org/) -->
<svg height="467pt" version="1.1" viewBox="0 0 629 467" width="629pt" xmlns="http://www.w3.org/2000/svg" xmlns:xlink="http://www.w3.org/1999/xlink">
 <defs>
  <style type="text/css">
*{stroke-linecap:butt;stroke-linejoin:round;}
  </style>
 </defs>
 <g id="figure_1">
  <g id="patch_1">
   <path d="
M0 467.821
L629.551 467.821
L629.551 -5.68434e-14
L0 -5.68434e-14
z
" style="fill:#ffffff;"/>
  </g>
  <g id="axes_1">
   <g id="LineCollection_1">
    <path clip-path="url(#p719a0dbf3e)" d="
M295.2 225.068
L288.175 242.601" style="fill:none;stroke:#a9a9a9;stroke-width:0.1;"/>
    <path clip-path="url(#p719a0dbf3e)" d="
M295.2 225.068
L288.175 242.601" style="fill:none;stroke:#a9a9a9;stroke-width:0.1;"/>
    <path clip-path="url(#p719a0dbf3e)" d="
M295.2 225.068
L288.175 242.601" style="fill:none;stroke:#a9a9a9;stroke-width:0.1;"/>
    <path clip-path="url(#p719a0dbf3e)" d="
M295.2 225.068
L288.175 242.601" style="fill:none;stroke:#a9a9a9;stroke-width:0.1;"/>
    <path clip-path="url(#p719a0dbf3e)" d="
M295.2 225.068
L288.175 242.601" style="fill:none;stroke:#a9a9a9;stroke-width:0.1;"/>
    <path clip-path="url(#p719a0dbf3e)" d="
M295.2 225.068
L288.175 242.601" style="fill:none;stroke:#a9a9a9;stroke-width:0.1;"/>
    <path clip-path="url(#p719a0dbf3e)" d="
M295.2 225.068
L288.175 242.601" style="fill:none;stroke:#a9a9a9;stroke-width:0.1;"/>
    <path clip-path="url(#p719a0dbf3e)" d="
M295.2 225.068
L288.175 242.601" style="fill:none;stroke:#a9a9a9;stroke-width:0.1;"/>
    <path clip-path="url(#p719a0dbf3e)" d="
M295.2 225.068
L288.175 242.601" style="fill:none;stroke:#a9a9a9;stroke-width:0.1;"/>
    <path clip-path="url(#p719a0dbf3e)" d="
M295.2 225.068
L288.175 242.601" style="fill:none;stroke:#a9a9a9;stroke-width:0.1;"/>
    <path clip-path="url(#p719a0dbf3e)" d="
M295.2 225.068
L288.175 242.601" style="fill:none;stroke:#a9a9a9;stroke-width:0.1;"/>
    <path clip-path="url(#p719a0dbf3e)" d="
M295.2 225.068
L318.65 236.998" style="fill:none;stroke:#a9a9a9;stroke-width:0.1;"/>
    <path clip-path="url(#p719a0dbf3e)" d="
M295.2 225.068
L318.65 236.998" style="fill:none;stroke:#a9a9a9;stroke-width:0.1;"/>
    <path clip-path="url(#p719a0dbf3e)" d="
M295.2 225.068
L318.65 236.998" style="fill:none;stroke:#a9a9a9;stroke-width:0.1;"/>
    <path clip-path="url(#p719a0dbf3e)" d="
M295.2 225.068
L318.65 236.998" style="fill:none;stroke:#a9a9a9;stroke-width:0.1;"/>
    <path clip-path="url(#p719a0dbf3e)" d="
M295.2 225.068
L281.196 207.439" style="fill:none;stroke:#a9a9a9;stroke-width:0.1;"/>
    <path clip-path="url(#p719a0dbf3e)" d="
M295.2 225.068
L281.196 207.439" style="fill:none;stroke:#a9a9a9;stroke-width:0.1;"/>
    <path clip-path="url(#p719a0dbf3e)" d="
M295.2 225.068
L375.378 217.934" style="fill:none;stroke:#a9a9a9;stroke-width:0.1;"/>
    <path clip-path="url(#p719a0dbf3e)" d="
M295.2 225.068
L375.378 217.934" style="fill:none;stroke:#a9a9a9;stroke-width:0.1;"/>
    <path clip-path="url(#p719a0dbf3e)" d="
M295.2 225.068
L320.684 214.886" style="fill:none;stroke:#a9a9a9;stroke-width:0.1;"/>
    <path clip-path="url(#p719a0dbf3e)" d="
M295.2 225.068
L320.684 214.886" style="fill:none;stroke:#a9a9a9;stroke-width:0.1;"/>
    <path clip-path="url(#p719a0dbf3e)" d="
M295.2 225.068
L320.684 214.886" style="fill:none;stroke:#a9a9a9;stroke-width:0.1;"/>
    <path clip-path="url(#p719a0dbf3e)" d="
M295.2 225.068
L176.439 183.436" style="fill:none;stroke:#a9a9a9;stroke-width:0.1;"/>
    <path clip-path="url(#p719a0dbf3e)" d="
M295.2 225.068
L176.439 183.436" style="fill:none;stroke:#a9a9a9;stroke-width:0.1;"/>
    <path clip-path="url(#p719a0dbf3e)" d="
M295.2 225.068
L286.339 223.317" style="fill:none;stroke:#a9a9a9;stroke-width:0.1;"/>
    <path clip-path="url(#p719a0dbf3e)" d="
M295.2 225.068
L286.339 223.317" style="fill:none;stroke:#a9a9a9;stroke-width:0.1;"/>
    <path clip-path="url(#p719a0dbf3e)" d="
M295.2 225.068
L286.339 223.317" style="fill:none;stroke:#a9a9a9;stroke-width:0.1;"/>
    <path clip-path="url(#p719a0dbf3e)" d="
M295.2 225.068
L286.339 223.317" style="fill:none;stroke:#a9a9a9;stroke-width:0.1;"/>
    <path clip-path="url(#p719a0dbf3e)" d="
M295.2 225.068
L286.339 223.317" style="fill:none;stroke:#a9a9a9;stroke-width:0.1;"/>
    <path clip-path="url(#p719a0dbf3e)" d="
M295.2 225.068
L286.339 223.317" style="fill:none;stroke:#a9a9a9;stroke-width:0.1;"/>
    <path clip-path="url(#p719a0dbf3e)" d="
M295.2 225.068
L286.339 223.317" style="fill:none;stroke:#a9a9a9;stroke-width:0.1;"/>
    <path clip-path="url(#p719a0dbf3e)" d="
M295.2 225.068
L286.339 223.317" style="fill:none;stroke:#a9a9a9;stroke-width:0.1;"/>
    <path clip-path="url(#p719a0dbf3e)" d="
M295.2 225.068
L286.339 223.317" style="fill:none;stroke:#a9a9a9;stroke-width:0.1;"/>
    <path clip-path="url(#p719a0dbf3e)" d="
M295.2 225.068
L286.339 223.317" style="fill:none;stroke:#a9a9a9;stroke-width:0.1;"/>
    <path clip-path="url(#p719a0dbf3e)" d="
M295.2 225.068
L286.339 223.317" style="fill:none;stroke:#a9a9a9;stroke-width:0.1;"/>
    <path clip-path="url(#p719a0dbf3e)" d="
M295.2 225.068
L286.339 223.317" style="fill:none;stroke:#a9a9a9;stroke-width:0.1;"/>
    <path clip-path="url(#p719a0dbf3e)" d="
M295.2 225.068
L286.339 223.317" style="fill:none;stroke:#a9a9a9;stroke-width:0.1;"/>
    <path clip-path="url(#p719a0dbf3e)" d="
M295.2 225.068
L286.339 223.317" style="fill:none;stroke:#a9a9a9;stroke-width:0.1;"/>
    <path clip-path="url(#p719a0dbf3e)" d="
M295.2 225.068
L286.339 223.317" style="fill:none;stroke:#a9a9a9;stroke-width:0.1;"/>
    <path clip-path="url(#p719a0dbf3e)" d="
M295.2 225.068
L286.339 223.317" style="fill:none;stroke:#a9a9a9;stroke-width:0.1;"/>
    <path clip-path="url(#p719a0dbf3e)" d="
M295.2 225.068
L286.339 223.317" style="fill:none;stroke:#a9a9a9;stroke-width:0.1;"/>
    <path clip-path="url(#p719a0dbf3e)" d="
M295.2 225.068
L286.339 223.317" style="fill:none;stroke:#a9a9a9;stroke-width:0.1;"/>
    <path clip-path="url(#p719a0dbf3e)" d="
M295.2 225.068
L286.339 223.317" style="fill:none;stroke:#a9a9a9;stroke-width:0.1;"/>
    <path clip-path="url(#p719a0dbf3e)" d="
M295.2 225.068
L286.339 223.317" style="fill:none;stroke:#a9a9a9;stroke-width:0.1;"/>
    <path clip-path="url(#p719a0dbf3e)" d="
M295.2 225.068
L286.339 223.317" style="fill:none;stroke:#a9a9a9;stroke-width:0.1;"/>
    <path clip-path="url(#p719a0dbf3e)" d="
M295.2 225.068
L261.314 245.468" style="fill:none;stroke:#a9a9a9;stroke-width:0.1;"/>
    <path clip-path="url(#p719a0dbf3e)" d="
M295.2 225.068
L261.314 245.468" style="fill:none;stroke:#a9a9a9;stroke-width:0.1;"/>
    <path clip-path="url(#p719a0dbf3e)" d="
M295.2 225.068
L261.314 245.468" style="fill:none;stroke:#a9a9a9;stroke-width:0.1;"/>
    <path clip-path="url(#p719a0dbf3e)" d="
M295.2 225.068
L261.314 245.468" style="fill:none;stroke:#a9a9a9;stroke-width:0.1;"/>
    <path clip-path="url(#p719a0dbf3e)" d="
M295.2 225.068
L410.751 276.007" style="fill:none;stroke:#a9a9a9;stroke-width:0.1;"/>
    <path clip-path="url(#p719a0dbf3e)" d="
M295.2 225.068
L410.751 276.007" style="fill:none;stroke:#a9a9a9;stroke-width:0.1;"/>
    <path clip-path="url(#p719a0dbf3e)" d="
M295.2 225.068
L303.826 215.245" style="fill:none;stroke:#a9a9a9;stroke-width:0.1;"/>
    <path clip-path="url(#p719a0dbf3e)" d="
M295.2 225.068
L303.826 215.245" style="fill:none;stroke:#a9a9a9;stroke-width:0.1;"/>
    <path clip-path="url(#p719a0dbf3e)" d="
M295.2 225.068
L303.826 215.245" style="fill:none;stroke:#a9a9a9;stroke-width:0.1;"/>
    <path clip-path="url(#p719a0dbf3e)" d="
M295.2 225.068
L303.826 215.245" style="fill:none;stroke:#a9a9a9;stroke-width:0.1;"/>
    <path clip-path="url(#p719a0dbf3e)" d="
M295.2 225.068
L303.826 215.245" style="fill:none;stroke:#a9a9a9;stroke-width:0.1;"/>
    <path clip-path="url(#p719a0dbf3e)" d="
M295.2 225.068
L303.826 215.245" style="fill:none;stroke:#a9a9a9;stroke-width:0.1;"/>
    <path clip-path="url(#p719a0dbf3e)" d="
M295.2 225.068
L352.533 260.064" style="fill:none;stroke:#a9a9a9;stroke-width:0.1;"/>
    <path clip-path="url(#p719a0dbf3e)" d="
M295.2 225.068
L352.533 260.064" style="fill:none;stroke:#a9a9a9;stroke-width:0.1;"/>
    <path clip-path="url(#p719a0dbf3e)" d="
M295.2 225.068
L236.978 212.27" style="fill:none;stroke:#a9a9a9;stroke-width:0.1;"/>
    <path clip-path="url(#p719a0dbf3e)" d="
M295.2 225.068
L236.978 212.27" style="fill:none;stroke:#a9a9a9;stroke-width:0.1;"/>
    <path clip-path="url(#p719a0dbf3e)" d="
M295.2 225.068
L236.978 212.27" style="fill:none;stroke:#a9a9a9;stroke-width:0.1;"/>
    <path clip-path="url(#p719a0dbf3e)" d="
M295.2 225.068
L342.624 141.729" style="fill:none;stroke:#a9a9a9;stroke-width:0.1;"/>
    <path clip-path="url(#p719a0dbf3e)" d="
M295.2 225.068
L342.624 141.729" style="fill:none;stroke:#a9a9a9;stroke-width:0.1;"/>
    <path clip-path="url(#p719a0dbf3e)" d="
M295.2 225.068
L342.624 141.729" style="fill:none;stroke:#a9a9a9;stroke-width:0.1;"/>
    <path clip-path="url(#p719a0dbf3e)" d="
M295.2 225.068
L342.624 141.729" style="fill:none;stroke:#a9a9a9;stroke-width:0.1;"/>
    <path clip-path="url(#p719a0dbf3e)" d="
M295.2 225.068
L564.467 240.129" style="fill:none;stroke:#a9a9a9;stroke-width:0.1;"/>
    <path clip-path="url(#p719a0dbf3e)" d="
M295.2 225.068
L564.467 240.129" style="fill:none;stroke:#a9a9a9;stroke-width:0.1;"/>
    <path clip-path="url(#p719a0dbf3e)" d="
M295.2 225.068
L299.61 251.338" style="fill:none;stroke:#a9a9a9;stroke-width:0.1;"/>
    <path clip-path="url(#p719a0dbf3e)" d="
M295.2 225.068
L299.61 251.338" style="fill:none;stroke:#a9a9a9;stroke-width:0.1;"/>
    <path clip-path="url(#p719a0dbf3e)" d="
M295.2 225.068
L299.61 251.338" style="fill:none;stroke:#a9a9a9;stroke-width:0.1;"/>
    <path clip-path="url(#p719a0dbf3e)" d="
M295.2 225.068
L299.61 251.338" style="fill:none;stroke:#a9a9a9;stroke-width:0.1;"/>
    <path clip-path="url(#p719a0dbf3e)" d="
M295.2 225.068
L174.691 267.447" style="fill:none;stroke:#a9a9a9;stroke-width:0.1;"/>
    <path clip-path="url(#p719a0dbf3e)" d="
M295.2 225.068
L174.691 267.447" style="fill:none;stroke:#a9a9a9;stroke-width:0.1;"/>
    <path clip-path="url(#p719a0dbf3e)" d="
M295.2 225.068
L430.732 74.7212" style="fill:none;stroke:#a9a9a9;stroke-width:0.1;"/>
    <path clip-path="url(#p719a0dbf3e)" d="
M295.2 225.068
L430.732 74.7212" style="fill:none;stroke:#a9a9a9;stroke-width:0.1;"/>
    <path clip-path="url(#p719a0dbf3e)" d="
M295.2 225.068
L267.338 165.33" style="fill:none;stroke:#a9a9a9;stroke-width:0.1;"/>
    <path clip-path="url(#p719a0dbf3e)" d="
M295.2 225.068
L267.338 165.33" style="fill:none;stroke:#a9a9a9;stroke-width:0.1;"/>
    <path clip-path="url(#p719a0dbf3e)" d="
M295.2 225.068
L303.53 204.325" style="fill:none;stroke:#a9a9a9;stroke-width:0.1;"/>
    <path clip-path="url(#p719a0dbf3e)" d="
M295.2 225.068
L303.53 204.325" style="fill:none;stroke:#a9a9a9;stroke-width:0.1;"/>
    <path clip-path="url(#p719a0dbf3e)" d="
M295.2 225.068
L283.15 281.392" style="fill:none;stroke:#a9a9a9;stroke-width:0.1;"/>
    <path clip-path="url(#p719a0dbf3e)" d="
M295.2 225.068
L283.15 281.392" style="fill:none;stroke:#a9a9a9;stroke-width:0.1;"/>
    <path clip-path="url(#p719a0dbf3e)" d="
M295.2 225.068
L283.15 281.392" style="fill:none;stroke:#a9a9a9;stroke-width:0.1;"/>
    <path clip-path="url(#p719a0dbf3e)" d="
M295.2 225.068
L283.15 281.392" style="fill:none;stroke:#a9a9a9;stroke-width:0.1;"/>
    <path clip-path="url(#p719a0dbf3e)" d="
M295.2 225.068
L283.15 281.392" style="fill:none;stroke:#a9a9a9;stroke-width:0.1;"/>
    <path clip-path="url(#p719a0dbf3e)" d="
M295.2 225.068
L283.15 281.392" style="fill:none;stroke:#a9a9a9;stroke-width:0.1;"/>
    <path clip-path="url(#p719a0dbf3e)" d="
M295.2 225.068
L283.15 281.392" style="fill:none;stroke:#a9a9a9;stroke-width:0.1;"/>
    <path clip-path="url(#p719a0dbf3e)" d="
M295.2 225.068
L344.523 186.561" style="fill:none;stroke:#a9a9a9;stroke-width:0.1;"/>
    <path clip-path="url(#p719a0dbf3e)" d="
M295.2 225.068
L344.523 186.561" style="fill:none;stroke:#a9a9a9;stroke-width:0.1;"/>
    <path clip-path="url(#p719a0dbf3e)" d="
M295.2 225.068
L269.392 220.765" style="fill:none;stroke:#a9a9a9;stroke-width:0.1;"/>
    <path clip-path="url(#p719a0dbf3e)" d="
M295.2 225.068
L269.392 220.765" style="fill:none;stroke:#a9a9a9;stroke-width:0.1;"/>
    <path clip-path="url(#p719a0dbf3e)" d="
M295.2 225.068
L269.392 220.765" style="fill:none;stroke:#a9a9a9;stroke-width:0.1;"/>
    <path clip-path="url(#p719a0dbf3e)" d="
M295.2 225.068
L269.392 220.765" style="fill:none;stroke:#a9a9a9;stroke-width:0.1;"/>
    <path clip-path="url(#p719a0dbf3e)" d="
M295.2 225.068
L269.392 220.765" style="fill:none;stroke:#a9a9a9;stroke-width:0.1;"/>
    <path clip-path="url(#p719a0dbf3e)" d="
M295.2 225.068
L282.821 232.532" style="fill:none;stroke:#a9a9a9;stroke-width:0.1;"/>
    <path clip-path="url(#p719a0dbf3e)" d="
M295.2 225.068
L282.821 232.532" style="fill:none;stroke:#a9a9a9;stroke-width:0.1;"/>
    <path clip-path="url(#p719a0dbf3e)" d="
M295.2 225.068
L282.821 232.532" style="fill:none;stroke:#a9a9a9;stroke-width:0.1;"/>
    <path clip-path="url(#p719a0dbf3e)" d="
M295.2 225.068
L282.821 232.532" style="fill:none;stroke:#a9a9a9;stroke-width:0.1;"/>
    <path clip-path="url(#p719a0dbf3e)" d="
M295.2 225.068
L282.821 232.532" style="fill:none;stroke:#a9a9a9;stroke-width:0.1;"/>
    <path clip-path="url(#p719a0dbf3e)" d="
M295.2 225.068
L282.821 232.532" style="fill:none;stroke:#a9a9a9;stroke-width:0.1;"/>
    <path clip-path="url(#p719a0dbf3e)" d="
M295.2 225.068
L282.821 232.532" style="fill:none;stroke:#a9a9a9;stroke-width:0.1;"/>
    <path clip-path="url(#p719a0dbf3e)" d="
M295.2 225.068
L282.821 232.532" style="fill:none;stroke:#a9a9a9;stroke-width:0.1;"/>
    <path clip-path="url(#p719a0dbf3e)" d="
M295.2 225.068
L282.821 232.532" style="fill:none;stroke:#a9a9a9;stroke-width:0.1;"/>
    <path clip-path="url(#p719a0dbf3e)" d="
M295.2 225.068
L282.821 232.532" style="fill:none;stroke:#a9a9a9;stroke-width:0.1;"/>
    <path clip-path="url(#p719a0dbf3e)" d="
M295.2 225.068
L282.821 232.532" style="fill:none;stroke:#a9a9a9;stroke-width:0.1;"/>
    <path clip-path="url(#p719a0dbf3e)" d="
M295.2 225.068
L282.821 232.532" style="fill:none;stroke:#a9a9a9;stroke-width:0.1;"/>
    <path clip-path="url(#p719a0dbf3e)" d="
M295.2 225.068
L321.915 226.138" style="fill:none;stroke:#a9a9a9;stroke-width:0.1;"/>
    <path clip-path="url(#p719a0dbf3e)" d="
M295.2 225.068
L321.915 226.138" style="fill:none;stroke:#a9a9a9;stroke-width:0.1;"/>
    <path clip-path="url(#p719a0dbf3e)" d="
M295.2 225.068
L321.915 226.138" style="fill:none;stroke:#a9a9a9;stroke-width:0.1;"/>
    <path clip-path="url(#p719a0dbf3e)" d="
M295.2 225.068
L321.915 226.138" style="fill:none;stroke:#a9a9a9;stroke-width:0.1;"/>
    <path clip-path="url(#p719a0dbf3e)" d="
M295.2 225.068
L321.915 226.138" style="fill:none;stroke:#a9a9a9;stroke-width:0.1;"/>
    <path clip-path="url(#p719a0dbf3e)" d="
M295.2 225.068
L185.178 383.293" style="fill:none;stroke:#a9a9a9;stroke-width:0.1;"/>
    <path clip-path="url(#p719a0dbf3e)" d="
M288.175 242.601
L276.209 260.223" style="fill:none;stroke:#a9a9a9;stroke-width:0.1;"/>
    <path clip-path="url(#p719a0dbf3e)" d="
M288.175 242.601
L276.209 260.223" style="fill:none;stroke:#a9a9a9;stroke-width:0.1;"/>
    <path clip-path="url(#p719a0dbf3e)" d="
M288.175 242.601
L276.209 260.223" style="fill:none;stroke:#a9a9a9;stroke-width:0.1;"/>
    <path clip-path="url(#p719a0dbf3e)" d="
M176.439 183.436
L133.866 168.76" style="fill:none;stroke:#a9a9a9;stroke-width:0.1;"/>
    <path clip-path="url(#p719a0dbf3e)" d="
M286.339 223.317
L276.209 260.223" style="fill:none;stroke:#a9a9a9;stroke-width:0.1;"/>
    <path clip-path="url(#p719a0dbf3e)" d="
M286.339 223.317
L276.209 260.223" style="fill:none;stroke:#a9a9a9;stroke-width:0.1;"/>
    <path clip-path="url(#p719a0dbf3e)" d="
M261.314 245.468
L276.209 260.223" style="fill:none;stroke:#a9a9a9;stroke-width:0.1;"/>
    <path clip-path="url(#p719a0dbf3e)" d="
M276.209 260.223
L299.61 251.338" style="fill:none;stroke:#a9a9a9;stroke-width:0.1;"/>
    <path clip-path="url(#p719a0dbf3e)" d="
M276.209 260.223
L299.61 251.338" style="fill:none;stroke:#a9a9a9;stroke-width:0.1;"/>
    <path clip-path="url(#p719a0dbf3e)" d="
M276.209 260.223
L299.61 251.338" style="fill:none;stroke:#a9a9a9;stroke-width:0.1;"/>
    <path clip-path="url(#p719a0dbf3e)" d="
M276.209 260.223
L299.61 251.338" style="fill:none;stroke:#a9a9a9;stroke-width:0.1;"/>
    <path clip-path="url(#p719a0dbf3e)" d="
M276.209 260.223
L269.392 220.765" style="fill:none;stroke:#a9a9a9;stroke-width:0.1;"/>
    <path clip-path="url(#p719a0dbf3e)" d="
M276.209 260.223
L282.821 232.532" style="fill:none;stroke:#a9a9a9;stroke-width:0.1;"/>
    <path clip-path="url(#p719a0dbf3e)" d="
M276.209 260.223
L283.15 281.392" style="fill:none;stroke:#a9a9a9;stroke-width:0.1;"/>
   </g>
   <g id="PathCollection_1">
    <defs>
     <path d="
M0 2.23607
C0.593012 2.23607 1.16182 2.00046 1.58114 1.58114
C2.00046 1.16182 2.23607 0.593012 2.23607 0
C2.23607 -0.593012 2.00046 -1.16182 1.58114 -1.58114
C1.16182 -2.00046 0.593012 -2.23607 0 -2.23607
C-0.593012 -2.23607 -1.16182 -2.00046 -1.58114 -1.58114
C-2.00046 -1.16182 -2.23607 -0.593012 -2.23607 0
C-2.23607 0.593012 -2.00046 1.16182 -1.58114 1.58114
C-1.16182 2.00046 -0.593012 2.23607 0 2.23607
z
" id="C0_0_919e3f95db"/>
    </defs>
    <g clip-path="url(#p719a0dbf3e)">
     <use style="fill:#1e90ff;stroke:#000000;stroke-width:0.5;" x="295.200387549" xlink:href="#C0_0_919e3f95db" y="225.068035153"/>
    </g>
    <g clip-path="url(#p719a0dbf3e)">
     <use style="fill:#ff6347;stroke:#000000;stroke-width:0.5;" x="288.175222701" xlink:href="#C0_0_919e3f95db" y="242.600641956"/>
    </g>
    <g clip-path="url(#p719a0dbf3e)">
     <use style="fill:#ff6347;stroke:#000000;stroke-width:0.5;" x="303.826099514" xlink:href="#C0_0_919e3f95db" y="215.245323349"/>
    </g>
    <g clip-path="url(#p719a0dbf3e)">
     <use style="fill:#ff6347;stroke:#000000;stroke-width:0.5;" x="281.195730484" xlink:href="#C0_0_919e3f95db" y="207.438819652"/>
    </g>
    <g clip-path="url(#p719a0dbf3e)">
     <use style="fill:#ff6347;stroke:#000000;stroke-width:0.5;" x="375.377629493" xlink:href="#C0_0_919e3f95db" y="217.934447997"/>
    </g>
    <g clip-path="url(#p719a0dbf3e)">
     <use style="fill:#ff6347;stroke:#000000;stroke-width:0.5;" x="564.466900523" xlink:href="#C0_0_919e3f95db" y="240.128548582"/>
    </g>
    <g clip-path="url(#p719a0dbf3e)">
     <use style="fill:#ff6347;stroke:#000000;stroke-width:0.5;" x="320.684336319" xlink:href="#C0_0_919e3f95db" y="214.885804225"/>
    </g>
    <g clip-path="url(#p719a0dbf3e)">
     <use style="fill:#ff6347;stroke:#000000;stroke-width:0.5;" x="176.439193824" xlink:href="#C0_0_919e3f95db" y="183.436098993"/>
    </g>
    <g clip-path="url(#p719a0dbf3e)">
     <use style="fill:#ff6347;stroke:#000000;stroke-width:0.5;" x="286.338763634" xlink:href="#C0_0_919e3f95db" y="223.317131606"/>
    </g>
    <g clip-path="url(#p719a0dbf3e)">
     <use style="fill:#ff6347;stroke:#000000;stroke-width:0.5;" x="261.314011126" xlink:href="#C0_0_919e3f95db" y="245.468396323"/>
    </g>
    <g clip-path="url(#p719a0dbf3e)">
     <use style="fill:#ff6347;stroke:#000000;stroke-width:0.5;" x="410.75125057" xlink:href="#C0_0_919e3f95db" y="276.007097916"/>
    </g>
    <g clip-path="url(#p719a0dbf3e)">
     <use style="fill:#ff6347;stroke:#000000;stroke-width:0.5;" x="318.649905607" xlink:href="#C0_0_919e3f95db" y="236.998285916"/>
    </g>
    <g clip-path="url(#p719a0dbf3e)">
     <use style="fill:#1e90ff;stroke:#000000;stroke-width:0.5;" x="276.209248114" xlink:href="#C0_0_919e3f95db" y="260.222554839"/>
    </g>
    <g clip-path="url(#p719a0dbf3e)">
     <use style="fill:#ff6347;stroke:#000000;stroke-width:0.5;" x="236.978413546" xlink:href="#C0_0_919e3f95db" y="212.270297291"/>
    </g>
    <g clip-path="url(#p719a0dbf3e)">
     <use style="fill:#ff6347;stroke:#000000;stroke-width:0.5;" x="342.624495377" xlink:href="#C0_0_919e3f95db" y="141.729265388"/>
    </g>
    <g clip-path="url(#p719a0dbf3e)">
     <use style="fill:#1e90ff;stroke:#000000;stroke-width:0.5;" x="133.86625" xlink:href="#C0_0_919e3f95db" y="168.759689741"/>
    </g>
    <g clip-path="url(#p719a0dbf3e)">
     <use style="fill:#ff6347;stroke:#000000;stroke-width:0.5;" x="352.533482156" xlink:href="#C0_0_919e3f95db" y="260.064149135"/>
    </g>
    <g clip-path="url(#p719a0dbf3e)">
     <use style="fill:#ff6347;stroke:#000000;stroke-width:0.5;" x="299.609633291" xlink:href="#C0_0_919e3f95db" y="251.338007908"/>
    </g>
    <g clip-path="url(#p719a0dbf3e)">
     <use style="fill:#ff6347;stroke:#000000;stroke-width:0.5;" x="174.69134087" xlink:href="#C0_0_919e3f95db" y="267.447250432"/>
    </g>
    <g clip-path="url(#p719a0dbf3e)">
     <use style="fill:#ff6347;stroke:#000000;stroke-width:0.5;" x="430.732265346" xlink:href="#C0_0_919e3f95db" y="74.7211607143"/>
    </g>
    <g clip-path="url(#p719a0dbf3e)">
     <use style="fill:#ff6347;stroke:#000000;stroke-width:0.5;" x="267.338400891" xlink:href="#C0_0_919e3f95db" y="165.329683602"/>
    </g>
    <g clip-path="url(#p719a0dbf3e)">
     <use style="fill:#ff6347;stroke:#000000;stroke-width:0.5;" x="303.53006616" xlink:href="#C0_0_919e3f95db" y="204.325347121"/>
    </g>
    <g clip-path="url(#p719a0dbf3e)">
     <use style="fill:#ff6347;stroke:#000000;stroke-width:0.5;" x="283.15013574" xlink:href="#C0_0_919e3f95db" y="281.392470471"/>
    </g>
    <g clip-path="url(#p719a0dbf3e)">
     <use style="fill:#ff6347;stroke:#000000;stroke-width:0.5;" x="344.523056202" xlink:href="#C0_0_919e3f95db" y="186.560602517"/>
    </g>
    <g clip-path="url(#p719a0dbf3e)">
     <use style="fill:#ff6347;stroke:#000000;stroke-width:0.5;" x="269.391906813" xlink:href="#C0_0_919e3f95db" y="220.764514283"/>
    </g>
    <g clip-path="url(#p719a0dbf3e)">
     <use style="fill:#ff6347;stroke:#000000;stroke-width:0.5;" x="282.821363414" xlink:href="#C0_0_919e3f95db" y="232.531630114"/>
    </g>
    <g clip-path="url(#p719a0dbf3e)">
     <use style="fill:#ff6347;stroke:#000000;stroke-width:0.5;" x="321.915346318" xlink:href="#C0_0_919e3f95db" y="226.137700906"/>
    </g>
    <g clip-path="url(#p719a0dbf3e)">
     <use style="fill:#ff6347;stroke:#000000;stroke-width:0.5;" x="185.177637654" xlink:href="#C0_0_919e3f95db" y="383.292589286"/>
    </g>
   </g>
  </g>
 </g>
 <defs>
  <clipPath id="p719a0dbf3e">
   <rect height="432.0" width="576.0" x="37.86625" y="13.006875"/>
  </clipPath>
 </defs>
</svg>
